<svg xmlns="http://www.w3.org/2000/svg" xmlns:xlink="http://www.w3.org/1999/xlink" width="500" zoomAndPan="magnify" viewBox="0 0 375 374.999991" height="500" preserveAspectRatio="xMidYMid meet" version="1.0"><defs><g/><clipPath id="0c3e5948b6"><path d="M 110.074219 40.65625 L 264.820312 40.65625 L 264.820312 172 L 110.074219 172 Z M 110.074219 40.65625 " clip-rule="nonzero"/></clipPath></defs><g clip-path="url(#0c3e5948b6)"><path fill="#f9a533" d="M 152.886719 74.945312 C 170.472656 94.042969 168.484375 114.683594 168.484375 114.683594 C 173.339844 114.917969 192.589844 116.410156 208.878906 132.058594 C 224.621094 147.175781 227.210938 165.53125 227.75 170.511719 L 216.601562 171.777344 C 211.464844 127.851562 167.09375 125.96875 167.09375 125.96875 C 164.320312 143.171875 149.890625 156.339844 149.890625 156.339844 C 131.460938 173.53125 110.378906 171.722656 110.378906 171.722656 L 110.230469 160.484375 C 114.308594 160.457031 127.425781 159.867188 139.492188 150.214844 C 141.855469 148.320312 155.148438 137.304688 156.828125 117.929688 C 157.066406 115.222656 158.375 96.410156 143.84375 81.554688 C 130.433594 67.847656 113.429688 67.628906 110.378906 67.640625 L 110.378906 56.277344 C 110.378906 56.277344 135.304688 55.851562 152.886719 74.945312 Z M 175.054688 102.800781 C 175.296875 104.78125 175.464844 106.675781 175.578125 108.476562 C 178.808594 108.480469 199.992188 108.164062 215.234375 90.726562 C 228.132812 75.972656 228.117188 58.878906 228.007812 54.863281 L 216.621094 54.863281 C 216.746094 57.519531 217.167969 72.292969 205.765625 84.40625 C 193.25 97.703125 176.546875 97.101562 174.160156 96.972656 C 174.5 98.800781 174.804688 100.746094 175.054688 102.800781 Z M 234.007812 156.339844 C 233.992188 164.839844 241 171.820312 249.457031 171.777344 C 257.855469 171.738281 264.773438 164.785156 264.757812 156.339844 C 264.730469 147.929688 257.828125 141.027344 249.457031 140.984375 C 241.03125 140.945312 234.035156 147.871094 234.007812 156.339844 Z M 202.457031 61.972656 C 202.433594 73.628906 192.835938 83.210938 181.179688 83.210938 C 169.523438 83.207031 159.925781 73.628906 159.902344 61.972656 C 159.882812 50.285156 169.492188 40.65625 181.179688 40.65625 C 192.863281 40.652344 202.476562 50.28125 202.457031 61.972656 Z M 191.082031 61.972656 C 191.0625 56.574219 186.625 52.066406 181.179688 52.066406 C 175.753906 52.0625 171.273438 56.527344 171.261719 61.972656 C 171.230469 67.445312 175.726562 71.960938 181.179688 71.957031 C 186.65625 71.953125 191.105469 67.398438 191.082031 61.972656 Z M 191.082031 61.972656 " fill-opacity="1" fill-rule="nonzero"/><path fill="#f9a533" d="M 152.886719 74.945312 C 170.472656 94.042969 168.484375 114.683594 168.484375 114.683594 C 173.339844 114.917969 192.589844 116.410156 208.878906 132.058594 C 224.621094 147.175781 227.210938 165.53125 227.75 170.511719 L 216.601562 171.777344 C 211.464844 127.851562 167.09375 125.96875 167.09375 125.96875 C 164.320312 143.171875 149.890625 156.339844 149.890625 156.339844 C 131.460938 173.53125 110.378906 171.722656 110.378906 171.722656 L 110.230469 160.484375 C 114.308594 160.457031 127.425781 159.867188 139.492188 150.214844 C 141.855469 148.320312 155.148438 137.304688 156.828125 117.929688 C 157.066406 115.222656 158.375 96.410156 143.84375 81.554688 C 130.433594 67.847656 113.429688 67.628906 110.378906 67.640625 L 110.378906 56.277344 C 110.378906 56.277344 135.304688 55.851562 152.886719 74.945312 Z M 175.054688 102.800781 C 175.296875 104.78125 175.464844 106.675781 175.578125 108.476562 C 178.808594 108.480469 199.992188 108.164062 215.234375 90.726562 C 228.132812 75.972656 228.117188 58.878906 228.007812 54.863281 L 216.621094 54.863281 C 216.746094 57.519531 217.167969 72.292969 205.765625 84.40625 C 193.25 97.703125 176.546875 97.101562 174.160156 96.972656 C 174.5 98.800781 174.804688 100.746094 175.054688 102.800781 Z M 234.007812 156.339844 C 233.992188 164.839844 241 171.820312 249.457031 171.777344 C 257.855469 171.738281 264.773438 164.785156 264.757812 156.339844 C 264.730469 147.929688 257.828125 141.027344 249.457031 140.984375 C 241.03125 140.945312 234.035156 147.871094 234.007812 156.339844 Z M 202.457031 61.972656 C 202.433594 73.628906 192.835938 83.210938 181.179688 83.210938 C 169.523438 83.207031 159.925781 73.628906 159.902344 61.972656 C 159.882812 50.285156 169.492188 40.65625 181.179688 40.65625 C 192.863281 40.652344 202.476562 50.28125 202.457031 61.972656 Z M 191.082031 61.972656 C 191.0625 56.574219 186.625 52.066406 181.179688 52.066406 C 175.753906 52.0625 171.273438 56.527344 171.261719 61.972656 C 171.230469 67.445312 175.726562 71.960938 181.179688 71.957031 C 186.65625 71.953125 191.105469 67.398438 191.082031 61.972656 Z M 191.082031 61.972656 " fill-opacity="1" fill-rule="nonzero"/></g><g fill="#f9a533" fill-opacity="1"><g transform="translate(66.698799, 323.376445)"><g><path d="M 13.265625 0.265625 C 11.023438 0.265625 8.875 -0.09375 6.8125 -0.8125 C 4.75 -1.539062 3.15625 -2.492188 2.03125 -3.671875 L 3.28125 -6.140625 C 4.375 -5.046875 5.828125 -4.160156 7.640625 -3.484375 C 9.460938 -2.804688 11.335938 -2.46875 13.265625 -2.46875 C 15.984375 -2.46875 18.019531 -2.960938 19.375 -3.953125 C 20.726562 -4.953125 21.40625 -6.242188 21.40625 -7.828125 C 21.40625 -9.035156 21.035156 -10 20.296875 -10.71875 C 19.566406 -11.4375 18.664062 -11.988281 17.59375 -12.375 C 16.53125 -12.769531 15.046875 -13.195312 13.140625 -13.65625 C 10.867188 -14.238281 9.050781 -14.796875 7.6875 -15.328125 C 6.332031 -15.859375 5.171875 -16.671875 4.203125 -17.765625 C 3.242188 -18.859375 2.765625 -20.34375 2.765625 -22.21875 C 2.765625 -23.75 3.164062 -25.140625 3.96875 -26.390625 C 4.78125 -27.648438 6.019531 -28.65625 7.6875 -29.40625 C 9.363281 -30.15625 11.441406 -30.53125 13.921875 -30.53125 C 15.648438 -30.53125 17.34375 -30.289062 19 -29.8125 C 20.65625 -29.332031 22.085938 -28.675781 23.296875 -27.84375 L 22.21875 -25.296875 C 20.945312 -26.128906 19.59375 -26.753906 18.15625 -27.171875 C 16.71875 -27.585938 15.304688 -27.796875 13.921875 -27.796875 C 11.265625 -27.796875 9.265625 -27.285156 7.921875 -26.265625 C 6.585938 -25.242188 5.921875 -23.925781 5.921875 -22.3125 C 5.921875 -21.101562 6.285156 -20.128906 7.015625 -19.390625 C 7.753906 -18.648438 8.675781 -18.085938 9.78125 -17.703125 C 10.894531 -17.316406 12.390625 -16.890625 14.265625 -16.421875 C 16.484375 -15.878906 18.273438 -15.34375 19.640625 -14.8125 C 21.015625 -14.28125 22.175781 -13.472656 23.125 -12.390625 C 24.082031 -11.304688 24.5625 -9.84375 24.5625 -8 C 24.5625 -6.46875 24.148438 -5.078125 23.328125 -3.828125 C 22.503906 -2.578125 21.238281 -1.582031 19.53125 -0.84375 C 17.832031 -0.101562 15.742188 0.265625 13.265625 0.265625 Z M 13.265625 0.265625 "/></g></g></g><g fill="#f9a533" fill-opacity="1"><g transform="translate(116.717459, 323.376445)"><g><path d="M 10.8125 -27.5 L 0.171875 -27.5 L 0.171875 -30.265625 L 24.640625 -30.265625 L 24.640625 -27.5 L 14.015625 -27.5 L 14.015625 0 L 10.8125 0 Z M 10.8125 -27.5 "/></g></g></g><g fill="#f9a533" fill-opacity="1"><g transform="translate(164.963757, 323.376445)"><g><path d="M 18.15625 0.265625 C 15.15625 0.265625 12.4375 -0.40625 10 -1.75 C 7.570312 -3.09375 5.671875 -4.929688 4.296875 -7.265625 C 2.929688 -9.597656 2.25 -12.21875 2.25 -15.125 C 2.25 -18.039062 2.929688 -20.664062 4.296875 -23 C 5.671875 -25.332031 7.570312 -27.171875 10 -28.515625 C 12.4375 -29.859375 15.15625 -30.53125 18.15625 -30.53125 C 21.15625 -30.53125 23.859375 -29.863281 26.265625 -28.53125 C 28.671875 -27.207031 30.566406 -25.367188 31.953125 -23.015625 C 33.335938 -20.671875 34.03125 -18.039062 34.03125 -15.125 C 34.03125 -12.21875 33.335938 -9.585938 31.953125 -7.234375 C 30.566406 -4.890625 28.671875 -3.050781 26.265625 -1.71875 C 23.859375 -0.394531 21.15625 0.265625 18.15625 0.265625 Z M 18.15625 -2.59375 C 20.550781 -2.59375 22.710938 -3.132812 24.640625 -4.21875 C 26.578125 -5.300781 28.09375 -6.800781 29.1875 -8.71875 C 30.28125 -10.632812 30.828125 -12.769531 30.828125 -15.125 C 30.828125 -17.488281 30.28125 -19.628906 29.1875 -21.546875 C 28.09375 -23.460938 26.578125 -24.960938 24.640625 -26.046875 C 22.710938 -27.128906 20.550781 -27.671875 18.15625 -27.671875 C 15.757812 -27.671875 13.585938 -27.128906 11.640625 -26.046875 C 9.703125 -24.960938 8.175781 -23.460938 7.0625 -21.546875 C 5.957031 -19.628906 5.40625 -17.488281 5.40625 -15.125 C 5.40625 -12.769531 5.957031 -10.632812 7.0625 -8.71875 C 8.175781 -6.800781 9.703125 -5.300781 11.640625 -4.21875 C 13.585938 -3.132812 15.757812 -2.59375 18.15625 -2.59375 Z M 18.15625 -2.59375 "/></g></g></g><g fill="#f9a533" fill-opacity="1"><g transform="translate(224.665573, 323.376445)"><g><path d="M 25.59375 0 L 18.671875 -9.734375 C 17.898438 -9.640625 17.09375 -9.59375 16.25 -9.59375 L 8.125 -9.59375 L 8.125 0 L 4.921875 0 L 4.921875 -30.265625 L 16.25 -30.265625 C 20.113281 -30.265625 23.140625 -29.34375 25.328125 -27.5 C 27.523438 -25.65625 28.625 -23.117188 28.625 -19.890625 C 28.625 -17.523438 28.023438 -15.523438 26.828125 -13.890625 C 25.628906 -12.265625 23.921875 -11.09375 21.703125 -10.375 L 29.09375 0 Z M 16.171875 -12.328125 C 19.171875 -12.328125 21.460938 -12.988281 23.046875 -14.3125 C 24.628906 -15.632812 25.421875 -17.492188 25.421875 -19.890625 C 25.421875 -22.335938 24.628906 -24.21875 23.046875 -25.53125 C 21.460938 -26.84375 19.171875 -27.5 16.171875 -27.5 L 8.125 -27.5 L 8.125 -12.328125 Z M 16.171875 -12.328125 "/></g></g></g><g fill="#f9a533" fill-opacity="1"><g transform="translate(279.352909, 323.376445)"><g><path d="M 26.328125 -2.765625 L 26.328125 0 L 4.921875 0 L 4.921875 -30.265625 L 25.6875 -30.265625 L 25.6875 -27.5 L 8.125 -27.5 L 8.125 -16.734375 L 23.78125 -16.734375 L 23.78125 -14.015625 L 8.125 -14.015625 L 8.125 -2.765625 Z M 26.328125 -2.765625 "/></g></g></g><g fill="#f9a533" fill-opacity="1"><g transform="translate(23.153399, 255.849808)"><g><path d="M 19.230469 1.097656 C 29.738281 1.097656 36.671875 -6.179688 36.671875 -16.34375 L 36.671875 -48.074219 L 26.441406 -48.074219 L 26.441406 -16.894531 C 26.441406 -11.882812 23.488281 -8.722656 19.230469 -8.722656 C 14.765625 -8.722656 11.8125 -11.949219 11.8125 -16.894531 L 11.8125 -18.128906 L 1.511719 -18.128906 L 1.511719 -16.34375 C 1.511719 -6.179688 8.929688 1.097656 19.230469 1.097656 Z M 19.230469 1.097656 "/></g></g></g><g fill="#f9a533" fill-opacity="1"><g transform="translate(80.083349, 255.849808)"><g><path d="M 15.863281 -9.613281 L 15.863281 -19.503906 L 32.550781 -19.503906 L 32.550781 -28.914062 L 15.863281 -28.914062 L 15.863281 -38.457031 L 34.339844 -38.457031 L 34.339844 -48.074219 L 5.492188 -48.074219 L 5.492188 0 L 35.09375 0 L 35.09375 -9.613281 Z M 15.863281 -9.613281 "/></g></g></g><g fill="#f9a533" fill-opacity="1"><g transform="translate(133.579857, 255.849808)"><g><path d="M 31.933594 0 L 43.539062 0 L 32.894531 -18.128906 C 38.253906 -20.742188 41.6875 -25.824219 41.6875 -32.140625 C 41.6875 -41.410156 34.476562 -48.074219 24.859375 -48.074219 L 5.492188 -48.074219 L 5.492188 0 L 15.863281 0 L 15.863281 -16.34375 L 22.527344 -16.34375 Z M 15.863281 -38.457031 L 24.175781 -38.457031 C 28.570312 -38.457031 31.109375 -35.78125 31.109375 -32.210938 C 31.109375 -28.570312 28.570312 -25.960938 24.175781 -25.960938 L 15.863281 -25.960938 Z M 15.863281 -38.457031 "/></g></g></g><g fill="#f9a533" fill-opacity="1"><g transform="translate(194.080577, 255.849808)"><g><path d="M 21.425781 0.960938 C 31.386719 0.960938 39.625 -4.050781 39.625 -14.421875 C 39.625 -25.203125 30.421875 -27.46875 23.144531 -29.324219 C 17.992188 -30.5625 13.871094 -31.589844 13.871094 -34.957031 C 13.871094 -38.117188 17.238281 -39.558594 20.601562 -39.558594 C 24.515625 -39.558594 27.953125 -37.632812 27.953125 -33.445312 L 38.183594 -33.445312 C 38.183594 -43.058594 31.933594 -48.964844 20.878906 -48.964844 C 10.234375 -48.964844 3.433594 -43.746094 3.433594 -34.542969 C 3.433594 -24.175781 12.222656 -22.046875 19.503906 -20.257812 C 24.722656 -19.09375 29.117188 -18.0625 29.117188 -14.285156 C 29.117188 -10.714844 25.273438 -8.652344 21.359375 -8.652344 C 17.101562 -8.652344 13.253906 -10.917969 13.253906 -15.519531 L 2.746094 -15.519531 C 2.746094 -5.21875 10.371094 0.960938 21.425781 0.960938 Z M 21.425781 0.960938 "/></g></g></g><g fill="#f9a533" fill-opacity="1"><g transform="translate(251.69722, 255.849808)"><g><path d="M 15.863281 -9.613281 L 15.863281 -19.503906 L 32.550781 -19.503906 L 32.550781 -28.914062 L 15.863281 -28.914062 L 15.863281 -38.457031 L 34.339844 -38.457031 L 34.339844 -48.074219 L 5.492188 -48.074219 L 5.492188 0 L 35.09375 0 L 35.09375 -9.613281 Z M 15.863281 -9.613281 "/></g></g></g><g fill="#f9a533" fill-opacity="1"><g transform="translate(305.193728, 255.849808)"><g><path d="M 45.53125 -48.074219 L 34.40625 -48.074219 L 23.28125 -28.777344 L 12.222656 -48.074219 L 1.167969 -48.074219 L 17.925781 -19.433594 L 17.925781 0 L 28.570312 0 L 28.570312 -19.367188 Z M 45.53125 -48.074219 "/></g></g></g></svg>